<mxfile host="app.diagrams.net" modified="2022-05-18T06:32:39.951Z" agent="5.0 (Windows NT 10.0; Win64; x64) AppleWebKit/537.36 (KHTML, like Gecko) Chrome/101.0.4951.64 Safari/537.36" etag="b1tphUT3da-OJ0wg2w5R" version="18.0.7" type="github">
  <diagram id="prtHgNgQTEPvFCAcTncT" name="Page-1">
    <mxGraphModel dx="1038" dy="547" grid="1" gridSize="10" guides="1" tooltips="1" connect="1" arrows="1" fold="1" page="1" pageScale="1" pageWidth="827" pageHeight="1169" math="0" shadow="0">
      <root>
        <mxCell id="0" />
        <mxCell id="1" parent="0" />
        <mxCell id="aBhrjclaN4uE-l7T1827-14" value="Pool" style="swimlane;childLayout=stackLayout;resizeParent=1;resizeParentMax=0;horizontal=1;startSize=20;horizontalStack=0;" vertex="1" parent="1">
          <mxGeometry x="20" y="40" width="780" height="430" as="geometry" />
        </mxCell>
        <mxCell id="aBhrjclaN4uE-l7T1827-15" value="数据库" style="swimlane;startSize=40;horizontal=0;" vertex="1" parent="aBhrjclaN4uE-l7T1827-14">
          <mxGeometry y="20" width="780" height="170" as="geometry" />
        </mxCell>
        <mxCell id="aBhrjclaN4uE-l7T1827-18" value="Oracle" style="rounded=0;whiteSpace=wrap;html=1;" vertex="1" parent="aBhrjclaN4uE-l7T1827-15">
          <mxGeometry x="50" y="30" width="120" height="60" as="geometry" />
        </mxCell>
        <mxCell id="aBhrjclaN4uE-l7T1827-23" value="MySQL" style="rounded=0;whiteSpace=wrap;html=1;" vertex="1" parent="aBhrjclaN4uE-l7T1827-15">
          <mxGeometry x="180" y="30" width="120" height="60" as="geometry" />
        </mxCell>
        <mxCell id="aBhrjclaN4uE-l7T1827-24" value="SQLServer" style="rounded=0;whiteSpace=wrap;html=1;" vertex="1" parent="aBhrjclaN4uE-l7T1827-15">
          <mxGeometry x="310" y="30" width="120" height="60" as="geometry" />
        </mxCell>
        <mxCell id="aBhrjclaN4uE-l7T1827-25" value="SQLServer" style="rounded=0;whiteSpace=wrap;html=1;" vertex="1" parent="aBhrjclaN4uE-l7T1827-15">
          <mxGeometry x="440" y="30" width="120" height="60" as="geometry" />
        </mxCell>
        <mxCell id="aBhrjclaN4uE-l7T1827-26" value="Postgres" style="rounded=0;whiteSpace=wrap;html=1;" vertex="1" parent="aBhrjclaN4uE-l7T1827-15">
          <mxGeometry x="50" y="100" width="120" height="60" as="geometry" />
        </mxCell>
        <mxCell id="aBhrjclaN4uE-l7T1827-27" value="Hadoop" style="rounded=0;whiteSpace=wrap;html=1;" vertex="1" parent="aBhrjclaN4uE-l7T1827-15">
          <mxGeometry x="180" y="100" width="120" height="60" as="geometry" />
        </mxCell>
        <mxCell id="aBhrjclaN4uE-l7T1827-34" value="SQL&lt;br&gt;数据库专家&lt;br&gt;数据库设计师&lt;br&gt;数据库管理员" style="shape=parallelogram;perimeter=parallelogramPerimeter;whiteSpace=wrap;html=1;fixedSize=1;" vertex="1" parent="aBhrjclaN4uE-l7T1827-15">
          <mxGeometry x="620" y="55" width="120" height="60" as="geometry" />
        </mxCell>
        <mxCell id="aBhrjclaN4uE-l7T1827-16" value="服务器" style="swimlane;startSize=40;horizontal=0;" vertex="1" parent="aBhrjclaN4uE-l7T1827-14">
          <mxGeometry y="190" width="780" height="120" as="geometry" />
        </mxCell>
        <mxCell id="aBhrjclaN4uE-l7T1827-28" value="Java&lt;span style=&quot;color: rgba(0, 0, 0, 0); font-family: monospace; font-size: 0px; text-align: start;&quot;&gt;%3CmxGraphModel%3E%3Croot%3E%3CmxCell%20id%3D%220%22%2F%3E%3CmxCell%20id%3D%221%22%20parent%3D%220%22%2F%3E%3CmxCell%20id%3D%222%22%20value%3D%22SQLServer%22%20style%3D%22rounded%3D0%3BwhiteSpace%3Dwrap%3Bhtml%3D1%3B%22%20vertex%3D%221%22%20parent%3D%221%22%3E%3CmxGeometry%20x%3D%22480%22%20y%3D%22140%22%20width%3D%22120%22%20height%3D%2260%22%20as%3D%22geometry%22%2F%3E%3C%2FmxCell%3E%3C%2Froot%3E%3C%2FmxGraphModel%3E&lt;/span&gt;" style="rounded=0;whiteSpace=wrap;html=1;" vertex="1" parent="aBhrjclaN4uE-l7T1827-16">
          <mxGeometry x="50" y="30" width="120" height="60" as="geometry" />
        </mxCell>
        <mxCell id="aBhrjclaN4uE-l7T1827-29" value="Python" style="rounded=0;whiteSpace=wrap;html=1;" vertex="1" parent="aBhrjclaN4uE-l7T1827-16">
          <mxGeometry x="180" y="30" width="120" height="60" as="geometry" />
        </mxCell>
        <mxCell id="aBhrjclaN4uE-l7T1827-30" value="C / C++" style="rounded=0;whiteSpace=wrap;html=1;" vertex="1" parent="aBhrjclaN4uE-l7T1827-16">
          <mxGeometry x="310" y="30" width="120" height="60" as="geometry" />
        </mxCell>
        <mxCell id="aBhrjclaN4uE-l7T1827-31" value="C#" style="rounded=0;whiteSpace=wrap;html=1;" vertex="1" parent="aBhrjclaN4uE-l7T1827-16">
          <mxGeometry x="440" y="30" width="120" height="60" as="geometry" />
        </mxCell>
        <mxCell id="aBhrjclaN4uE-l7T1827-35" value="网络知识" style="shape=parallelogram;perimeter=parallelogramPerimeter;whiteSpace=wrap;html=1;fixedSize=1;" vertex="1" parent="aBhrjclaN4uE-l7T1827-16">
          <mxGeometry x="610" y="30" width="120" height="60" as="geometry" />
        </mxCell>
        <mxCell id="aBhrjclaN4uE-l7T1827-17" value="客户端" style="swimlane;startSize=40;horizontal=0;" vertex="1" parent="aBhrjclaN4uE-l7T1827-14">
          <mxGeometry y="310" width="780" height="120" as="geometry" />
        </mxCell>
        <mxCell id="aBhrjclaN4uE-l7T1827-32" value="自定义" style="rounded=0;whiteSpace=wrap;html=1;" vertex="1" parent="aBhrjclaN4uE-l7T1827-17">
          <mxGeometry x="50" y="30" width="120" height="60" as="geometry" />
        </mxCell>
        <mxCell id="aBhrjclaN4uE-l7T1827-33" value="浏览器" style="rounded=0;whiteSpace=wrap;html=1;" vertex="1" parent="aBhrjclaN4uE-l7T1827-17">
          <mxGeometry x="180" y="30" width="120" height="60" as="geometry" />
        </mxCell>
        <mxCell id="aBhrjclaN4uE-l7T1827-36" value="移动端" style="rounded=0;whiteSpace=wrap;html=1;" vertex="1" parent="aBhrjclaN4uE-l7T1827-17">
          <mxGeometry x="310" y="30" width="120" height="60" as="geometry" />
        </mxCell>
      </root>
    </mxGraphModel>
  </diagram>
</mxfile>
